<?xml version="1.0" standalone="no"?>
<!DOCTYPE svg PUBLIC "-//W3C//DTD SVG 20010904//EN"
 "http://www.w3.org/TR/2001/REC-SVG-20010904/DTD/svg10.dtd">
<svg version="1.0" xmlns="http://www.w3.org/2000/svg"
 width="700.000000pt" height="700.000000pt" viewBox="0 0 700.000000 700.000000"
 preserveAspectRatio="xMidYMid meet">
 <style>
    path { fill: #000000; }
    @media (prefers-color-scheme: dark) {
        path { fill: #ffffff; }
    }
</style>
<g transform="translate(0.000000,700.000000) scale(0.100000,-0.100000)"
stroke="none">
<path d="M3910 6990 c-30 -4 -84 -10 -120 -14 -93 -10 -290 -51 -395 -81 -49
-15 -97 -28 -105 -30 -74 -15 -458 -187 -575 -258 -541 -325 -972 -827 -1194
-1391 -71 -181 -139 -418 -156 -546 -3 -25 -8 -52 -10 -60 -6 -22 -16 -113
-25 -210 -7 -86 -5 -439 3 -475 3 -11 8 -49 12 -85 4 -36 9 -74 11 -85 2 -11
9 -47 15 -80 49 -282 180 -635 331 -895 39 -66 47 -114 28 -150 -5 -10 -351
-360 -768 -777 -435 -435 -777 -786 -804 -824 -69 -95 -122 -210 -144 -306 -3
-15 -8 -67 -9 -114 -7 -165 45 -295 168 -419 103 -104 176 -148 292 -175 69
-16 240 -14 273 4 11 6 28 11 38 11 30 0 198 86 262 135 34 26 402 385 816
799 414 413 763 757 775 764 41 24 81 14 200 -51 172 -94 287 -145 456 -203
150 -52 363 -104 485 -119 30 -4 57 -8 60 -10 14 -8 218 -19 360 -19 142 0
306 9 355 19 11 3 38 7 60 10 83 11 163 28 270 55 118 30 344 106 359 121 6 5
16 9 22 9 40 0 324 153 485 261 230 154 491 397 659 614 160 206 280 411 385
660 45 106 121 340 140 435 2 8 8 35 14 60 16 72 40 230 48 321 15 165 9 503
-13 654 -102 725 -464 1368 -1029 1826 -99 79 -269 199 -284 199 -6 0 -11 5
-11 10 0 6 -5 10 -11 10 -6 0 -24 9 -39 20 -27 19 -245 130 -320 163 -159 69
-464 160 -615 183 -27 4 -57 9 -65 10 -8 2 -42 6 -75 9 -33 4 -67 9 -75 12
-23 8 -477 11 -540 3z m495 -745 c22 -3 67 -10 100 -16 290 -47 584 -163 831
-330 390 -262 696 -676 830 -1124 32 -103 72 -303 81 -397 10 -97 10 -346 0
-428 -12 -107 -17 -144 -22 -160 -3 -8 -7 -33 -11 -54 -3 -22 -10 -50 -15 -63
-5 -13 -6 -23 -4 -23 2 0 0 -11 -5 -25 -5 -14 -12 -36 -14 -48 -18 -95 -141
-373 -223 -507 -163 -263 -382 -490 -643 -664 -120 -81 -343 -187 -490 -234
-163 -53 -145 -48 -305 -78 -186 -34 -465 -38 -665 -8 -70 11 -304 65 -314 73
-6 5 -26 12 -45 16 -19 4 -77 25 -130 47 -419 175 -765 473 -1000 863 -156
258 -261 578 -288 880 -17 186 -6 419 28 590 5 28 11 59 13 70 2 11 18 68 35
126 104 356 302 682 570 933 29 28 59 56 65 61 43 41 173 137 245 181 47 30
91 57 96 61 17 13 161 82 238 114 120 51 313 106 427 124 25 4 53 9 64 11 10
2 51 6 90 10 39 3 73 8 74 9 6 6 346 -3 387 -10z"/>
<path d="M4268 5865 c-2 -1 -48 -5 -103 -8 -55 -4 -109 -8 -120 -10 -11 -3
-42 -8 -70 -11 -27 -4 -86 -16 -130 -28 -472 -118 -873 -412 -1132 -828 -54
-88 -122 -230 -137 -288 -35 -134 29 -270 157 -331 53 -26 72 -30 132 -28 134
5 204 60 286 224 174 350 467 589 835 682 136 34 298 44 455 28 73 -8 233 -47
294 -73 114 -48 191 -51 277 -11 129 58 196 194 164 331 -23 99 -74 158 -177
205 -104 47 -291 103 -394 117 -16 3 -40 7 -52 9 -12 3 -66 8 -120 11 -54 3
-113 7 -130 8 -18 2 -34 2 -35 1z"/>
</g>
</svg>
